P1
147 140
0000000000000000000000001010101010101010000000000000000101010101010101
0000000000000000000000000000000000000000000000000000000000000000000000
0000000000000000000000000000000111111111111111100000000000000111111111
1111111000000000000000000000000000000000000000000000000000000000000000
0000000000000000000000000000000000000011111111111111100000000000000011
1111111111111100000000000000000000000000000000000000000000000000000000
0000000000000000000000000000000000000000000001111111111111111000000000
0000011111111111111110000000000000000000000000000000000000000000000000
0000000000000000000000000000000000000000000000000000111111111111111000
0000000000001111111111111111000000000000000000000000000000000000000000
0000000000000000000000000000000000000000000000000000000000011111111111
1111100000000000000111111111111111100000000000000000000000000000000000
0000000000000000000000000000000000000000000000000000000000000000001111
1111111111100000000000000011111111111111110000000000000000000000000000
0000000000000000000000000000000000000000000000000000000000000000000000
0001111111111111111000000000000001111111111111111000000000000000000000
0000000000000000000000000000000000000000000000000000000000000000000000
0000000000111111111111111000000000000000111111111111111100000000000000
0000000000000000000000000000000000000000000000000000000000000000000000
0000000000000000011111111111111110000000000000011111111111111110000000
0000000000000000000000000000000000000000000000000000000000000000000000
0000000000000000000000001111111111111110000000000000001111111111111111
0000000000000000000000000000000000000000000000000000000000000000000000
0000000000000000000000000000000111111111111111100000000000000111111111
1111111000000000000000000000000000000000000000000000000000000000000000
0000000000000000000000000000000000000011111111111111100000000000000011
1111111111111100000000000000000000000000000000000000000000000000000000
0000000000000000000000000000000000000000000001111111111111111000000000
0000011111111111111110000000000000000000000000000000000000000000000000
0000000000000000000000000000000000000000000000000000111111111111111000
0000000000001111111111111111000000000000000000000000000000000000000000
0000000000000000000000000000000000000000000000000000000000011111111111
1111100000000000000111111111111111100000000000000000000000000000000000
0000000000000000000000000000000000000000000000000000000000000000001111
1111111111100000000000000011111111111111110000000000000000000000000000
0000000000000000000000000000000000000000000000000000000000000000000000
0001111111111111111000000000000001111111111111111000000000000000000000
0000000000000000000000000000000000000000000000000000000000000000000000
0000000000111111111111111000000000000000111111111111111100000000000000
0000000000000000000000000000000000000000000000000000000000000000000000
0000000000000000011111111111111111111111111111111111111111111110000000
0000000000000000000000000000000000000000000000000000000000000000000000
0000000000000000000000001111111111111111111111111111111111111111111111
0000000000000000000000000000000000000000000000000000000000000000000000
0000000000000000000000000000000111111111111111111111111111111111111111
1111111000000000000000000000000000000000000000000000000000000000000000
0000000000000000000000000000000000000011111111111111111111111111111111
1111111111111100000000000000000000000000000000000000000000000000000000
0000000000000000000000000000000000000000000001111111111111111111111111
1111111111111111111110000000000000000000000000000000000000000000000000
0000000000000000000000000000000000000000000000000000111111111111111111
1111111111111111111111111111000000000000000000000000000000000000000000
0000000000000000000000000000000000000000000000000000000000011111111111
1111111111111111111111111111111111100000000000000000000000000000000000
0000000000000000000000000000000000000000000000000000000000000000001111
1111111111111111111111111111111111111111110000000000000000000000000000
0000000000000000000000000000000000000000000000000000000000000000000000
0001111111111111111111111111111111111111111111111000000000000000000000
0000000000000000000000000000000000000000000000000000000000000000000000
0000000000111111111111111111111111111111111111111111111100000000000001
0101010101010100000000000000010101010101010100000000000000000000000000
0000000000000000011111111111111111111111111111111111111111111110000000
0000011111111111111110000000000000001111111111111111000000000000000000
0000000000000000000000001111111111111111111111111111111111111111111111
0000000000000111111111111111000000000000000111111111111111000000000000
0000000000000000000000000000000111111111111111111111111111111111111111
1111111000000000000111111111111111100000000000000011111111111111110000
0000000000000000000000000000000000000011111111111111111111111111111111
1111111111111100000000000011111111111111110000000000000001111111111111
1100000000000000000000000000000001111111111111111111111111111111111111
1111111111111111111110000000000000111111111111111000000000000000111111
1111111111000000000000000000000000000000111111111111111111111111111111
1111111111111111111111111111000000000000111111111111111100000000000000
0111111111111111000000000000000000000000000000011111111111111111111111
1111111111111111111111111111111111100000000000011111111111111110000000
0000000011111111111111110000000000000000000000000000001111111111111111
1111111111111111111111111111111111111111110000000000000111111111111111
0000000000000001111111111111110000000000000000000000000000000111111111
1111111111111111111111111111111111111111111111111000000000000111111111
1111111000000000000000111111111111111100000000000000000000000000000011
1111111111111111111111111111111111111111111111111111111100000000000011
1111111111111100000000000000011111111111111100000000000000000000000000
0000011111111111111111111111111111111111111111111111111111111110000000
0000001111111111111110000000000000001111111111111111000000000000000000
0000000000001111111111111111111111111111111111111111111111111111111111
0000000000001111111111111111000000000000000111111111111111000000000000
0000000000000000000111111111111111111111111111111111111111111111111111
1111111000000000000111111111111111100000000000000011111111111111110000
0000000000000000000000000011111111111111111111111111111111111111111111
1111111111111100000000000001111111111111110000000000000001111111111111
1100000000000000000000000000000001111111111111111111111111111111111111
1111111111111111111110000000000001111111111111111000000000000000111111
1111111111000000000000000000000000000000111111111111111111111111111111
1111111111111111111111111111000000000000111111111111111100000000000000
0111111111111111000000000000000000000000000000011111111111111111111111
1111111111111111111111111111111111100000000000001111111111111110000000
0000000011111111111111110000000000000000000000000000001111111111111111
1111111111111111111111111111111111111111110000000000001111111111111111
0000000000000001111111111111110000000000000000000000000000000111111111
1111111111000011111111111111111111111111111111111000000000000111111111
1111111000000000000000111111111111111100000000000000000000000000000011
1111111111111111000001111111111111111111111111111111111100000000000001
1111111111111100000000000000011111111111111100000000000000000000000000
0000011111111111111111100000011111111111111111111111111111111110100100
1001011111111111111111001001001001011111111111111111000000000000000000
0000000000001111111111111111110000011111111111111111111111111111111111
1111111111111111111111111111111111111111111111111111111111000000000000
0000000000000000000111111111111111111100011111111111111111111111111111
1111111111111111111111111111111111111111111111111111111111111111110000
0000000000000000000000000011111111111111111110001111111111111111111111
1111111111111111111111111111111111111111111111111111111111111111111111
1100000000000000000000000000000001111111111111111111000011111111111111
1111111111111111111111111111111111111111111111111111111111111111111111
1111111111000000000000000000000000000000111111111111111111100011111111
1111111111111111111111111111111111111111111111111111111111111111111111
1111111111111111000000000000000000000000000000011111111111111111110001
1111111111111111111111111111111111111111111111111111111111111111111111
1111111111111111111111110000000000000000000000000000001111111111111111
1110001111111111111111111111111111111111111111111111111111111111111111
1111111111111111111111111111110000000000000000000000000000000111111111
1111111111000011111111111111111111111111111111111111111111111111111111
1111111111111111111111111111111111111100000000000000000000000000000011
1111110111111111100011111111110111111111111111111111111111111111111111
1111111111111111111111111111111111111111111100000000000000000000000000
0000011111110000101101110000101101100000111111111111111111111111111111
1111111111111111111111111111111111111111111111111111000000000000000000
0000000000001111110000000000000000000000000000011111111111111111111111
1111111111111111111111111111111111111111111111111111111111000000000000
0000000000000000000111111100000000000000000000000000001111111111111111
1111111111111111111111111111111111111111111111111111111111111111110000
0000000000000000000000000011111110000010101010000101010100000111111111
1111111111111111111111111111111111111111111111111111111111111111111111
1100000000000000000000000000000001111111110111111111000111111111101111
1111111111111111111111111111111111111111111111111111111111111111111111
1111111111000000000000000000000000000000111111111111111111100011111111
1111111111111111111111111111111111111111111111111111111111111111111111
1111111111111111000000000000000000000000000000011111111111111111110001
1111111111111111111111111111111111111111111111111111111111111111111111
1111111111111111111111110000000000000000000000000000001111111111111111
1110001111111111111111111111111111111111111111111111111111111111111110
0011111111111111111111111111110000000000000000000000000000000111111111
1111111111000011111111111111111111111111111111111111111111111111111111
1111100000111111111111111111111111111100000000000000000000000000000011
1111111111111111100011111111111111111111111111111111111111111111111111
1111111111100000001111111111111111111111111100000000000000000000000000
0000011111111111111111110001111111111111111111111111111111111111111111
1111111111111111100000000011111111111111111111111111000000000000000000
0000000000001111111111111111111000011111111111111111111111111111111111
1111111111111111111111100000000001111111111111111111111111000000000000
0000000000000000000111111111111111111100001111111111111111111111111111
1111111111111111111111111111110000000000011111111111111111111111110000
0000000000000000000000000011111111111111111100000011111111111111111111
1111111111111111111111111111111111111000000000001111111111111111111111
1100000000000000000000000000000001111111111111111110000011111111111111
1111111111111111111111111111111111111111111000000000000111111111111111
1111111111000000000000000000000000000000111111111111111111100001111111
1111111111111111111111111111111111111111111111111100000000000001111111
1111111111111111000000000000000000000000000000011111111111111111111111
1111111111111111111111111111111111111111111111111111111110000000000000
1111111111111111111111110000000000000000000000000000001111111111111111
1111111111111111111111111111111111111111111111111111111111111111000000
0000001111111111111111111111110000000000000000000000000000000111111111
1111111111111111111111111111111111111111111111111111111111111111111111
1000000000000011111111111111111111111100000000000000000000000000000011
1111111111111111111111111111111111111111111111111111111111111111111111
1111111100000000000001111111111111111111111100000000000000000000000000
0000011111111111111111111111111111111111111111111111111111111111111111
1111111111111110000000000000111111111111111111111111000000000000000000
0000000000001111111111111111111111111111111111111111111111111111111111
1111111111111111111111000000000000111111111111111111111111000000000000
0000000000000000000111111111111111111111111111111111111111111111111111
1111111111111111111111111111100000000000001111111111111111111111110000
0000000000000000000000000011111111111111111111111111111111111111111111
1111111111111111111111111111111111111101010101011111111111111111111111
1100000000000000000000000000000001111111111111111111111111111111111111
1111111111111111111111111111111111111111111111111111111111111111111111
1111111111000000000000000000000000000000111111111111111111110111111111
1111111111111111111111111111111111111111111111111111111111111111111111
1111111111111111000000000000000000000000000000011111111111111111110000
1111111111111111111111111111111111111111111111111111111111111111111111
1111111111111111111111110000000000000000000000000000001111111111111111
1000000011111111111111111111111111111111111111111111111111111111111111
1111111111111111111111111111110000000000000000000000000000000111111111
1111111100000000111111111111111111111111111111111111111111111111111111
1111111111111111111111111111111111111100000000000000000000000000000011
1111111111111000000000001111111111111111111111111111111111111111111111
1111111111111111111111111111111111111111111100000000000000000000000000
0000011111111111111100000000000011111111111111111111111111111111111111
1111111111111111111111111111111111111111111111111111000000000000000000
0000000000001111111111111100000000000000111111111111111111111111111111
1111111111111111111111111111111111111111111111111111111111000000000000
0000000000000000000111111111111110000000000000011111111111111111111111
1111111111111111111111111111111111111111111111111111111111111111110000
0000000000000000000000000011111111111110000000000000000111111111111111
1111111111111111111111111111111111111111111111111111111111111111111111
1100000000000000000000000000000001111111111111000000000000000011111111
1111111111111111111111111111111111111111111111111111111111111111111111
1111111111000000000000000000000000000000111111111111000000000000000001
1111111111111111111111111111111111111111111111111111111111111111111111
1111111111111111000000000000000000000000000000011111111111100000000000
0000000111111111111111111111111111111111111111111111111111111111111111
1111111111111111111111110000000000000000000000000000001111111111100000
0000000000000011111111111111111111111111111111111111111111111111111111
1111111111111111111111111111110000000000000000000000000000000111111111
1100000000000000000001111111111111111111111111111111111111111111111111
1111111111111111111111111111111111111100000000000000000000000000000011
1111111110000000000000000000111111111111111111111111111111111111111111
1111111111111111111111111111111111111111111100000000000000000000000000
0000011111111111000000000000000000001111111111111111111111111111111111
1111111111111111111111111111111111111111111111111111000000000000000000
0000000000001111111111100000000000000000001111111111111111111111111111
1111111111111111111111111111111111111111111111111111111111000000000000
0000000000000000000111111111110000000000000000000011111111111111111111
1111111111111111111111111111111111111111111111111111111111111111110000
0000000000000000000000000011111111111000000000000000000011111111111111
1111111111111111111111111111111111111111111111111111111111111111111111
1100000000000000000000000000000001111111111100000000000000000001111111
1111111111111111111111111111111111111111111111111111111111111111111111
1111111111000000000000000000000000000000111111111110000000000000000000
0111111111111111111111111111111111111111111111111111111111111111111111
1111111111111111000000000000000000000000000000011111111111000000000000
0000000111111111111111111111111111111111111111111111111111111111111111
1111111111111111111111110000000000000000000000000000001111111111100000
0000000000000001111111111111111111111111111111111111111111111111111111
1111111111111111111111111111110000000000000000000000000000000111111111
1100000000000000000001111111111111111111111111111111111111111111111111
1111111111111111111111111111111111111100000000000000000000000000000011
1111111110000000000000000000011111111111111111111111111111111111111111
1111111111111111111111111111111111111111111100000000000000000000000000
0000011111111111000000000000000000011111111111111111111111111111111111
1111111111111111111111111111111111111111111111111111000000000000000000
0000000000001111111111100000000000000000000111111111111111111111111111
1111111111111111111111111111111111111111111111111111111111000000000000
0000000000000000000111111111110000000000000000000111111111111111111111
1111111111111111111111111111111111111111111111111111111111111111110000
0000000000000000000000000011111111111000000000000000000011111111111111
1111111111111111111111111111111111111111111111111111111111111111111111
1100000000000000000000000000000001111111111111111111111111111111111111
1111111111111111111111111111111111111111111111111111111111111111111111
1111111111000000000000000000000000000000111111111111111111111111111111
1111111111111111111111111111111111111111111111111111111111111111111111
1111111111111111000000000000000000000000000000111111111111111111111111
1111111111111111111111111111111111111111111111111111111111111111111111
1111111111111111111111110000000000000000000000000000111111111111111111
1111111111111111111111111111111111111111111111111111111111111111111111
1111111111111111111111111111111110000000000000000000000000111111111111
1111111111111111111111111111111111111111111111111111111111111111111111
1111111111111111111111111111111111111111100000000000000000000000111111
1111111111111111111111111111111111111111111111111111111111111111111111
1111111111111111111111111111111111111111111111111000000000000000000001
1111111111111111111111111111111111111111111111111111111111111111111111
1111111111111111111111111111111111111111111111111111111110000000000000
0000011111111111111111111111111111111111111111111111111111111111111111
1111111111111111111111111111111111111111111111111111111111111111110000
0000000000011111111111111111111111111111111111111111111111111111111111
1111111111111111111111111111111111111111111111111111111111111111111111
1111000000000000011111111111111111111111111111111111111111111111111111
1111111111111111111111111111111111111111111111111111111111111111111111
1111111111110000000000111111111111111111111111111111111111111111111111
1111111111111111111111111111111111111111111111111111111111111111111111
1111111111111111111100000000111111111111111111111111111111111111111111
1111111111111111111111111111111111111111111111111111111111111111111111
1111111111111111111111111111000000011111111111111111111111111111111111
1111111111111111111111111111111111111111111111111111111111111111111111
1111111111111111111111111111111111100000001111111111111111111111111111
1111111111111111111111111111111111111111111111111111111111111111111111
1111111111111111111111111111111111111111110000000111111111111111111111
1111111111111111111111111111111111111111111111111111111111111111111111
1111111111111111111111111111111111111111111111111000000011111111111111
1111111111111111111111111111111111111111111111111111111111111111111111
1111111111111111111111111111111111111111111111111111111100000000101010
1010101010101010101010101010101010101010101010101010101010101010101010
1010101010101010101010101010101010101010101010101010101010101010000000
0000000000000000000000000000000000000000000000000000000000000000000000
0000000000000000000000000000000000000000000000000000000000000000000000
0000000000000000000000000000000000000000000000000000000000000000000000
0000000000000000000000000000000000000000000000000000000000000000000000
0000000000000000000000000000000000000000000000000000000000000000000000
0000000000000000000000000000000000000000000000000000000000000000000000
0000000000000000000000000000000000000000000000000000000000000000000000
0000000000000000000000000000000000000000000000000000000000000000000000
0000000000000000000000000000000000000000000000000000000000000000000000
0000000000000000000000000000000000000000000000000000000000000000000000
0000000000000000000000000000000000000000000000000000000000000000000000
0000000000000000000000000000000000000000000000000000000000000000000000
0000000000000000000000000000000000000000000000000000000000000000000000
0000000000000000000000000000000000000000000000000000000000000000000000
0000000000000000000000000000000000000000000000000000000000000000000000
0000000000000000000000000000000000000000000000000000000000000000000000
0000000000000000000000000000000000000000000000000000000000000000000000
0000000000000000000000000000000000000000000000000000000000000000000000
0000000000000000000000000000000000000000000000000000000000000000000000
0000000000000000000000000000000000000000000000000000000000000000000000
0000000000000000000000000000000000000000000000000000000000000000000000