P1
10 10
0000000000001111110001100001100100000010010000001001000000100100000010
011000011000111111000000000000