P1
19 19
0000001111111000000
0000001111111000000
0000001111111000000
0000001111111000000
0000001111111000000
0000001111111000000
1111111111111111111
1111111111111111111
1111111111111111111
1111111111111111111
1111111111111111111
1111111111111111111
1111111111111111111
0000001111111000000
0000001111111000000
0000001111111000000
0000001111111000000
0000001111111000000
0000001111111000000