P1
# Created by GIMP version 2.10.30 PNM plug-in
100 25
0000000000000000000000000000000000000000000000000000000000000000000000
0000000000000000000000000000000000000000000000000000000000000000000000
0000000000000000000000000000000000000000000000000000000000000000001100
0000000001100000011111111111110000011000000000000001100000000000000000
0001110100000000000000000011000000000001100000011111111111110000011000
0000000000011000000000000000001111111111000000000000000011000000000001
1000000110000000000000000110000000000000011000000000000000011100000011
1000000000000000110000000000011000000110000000000000000110000000000000
0110000000000000001100000000001100000000000000110000000000011000000110
0000000000000001100000000000000110000000000000011100000000001110000000
0000001100000000000110000001100000000000000001100000000000000110000000
0000000110000000000001100000000000001100000000000110000001100000000000
0000011000000000000001100000000000001110000000000001110000000000001100
0000000001100000011000000000000000011000000000000001100000000000001100
0000000000001100000000000011111111111111100000011111111111110000011000
0000000000011000000000000011000000000000001100000000000011111111111111
1000000111111111111100000110000000000000011000000000000011000000000000
0011000000000000110000000000011000000110000000000000000110000000000000
0110000000000000110000000000000011000000000000110000000000011000000110
0000000000000001100000000000000110000000000000110000000000000011000000
0000001100000000000110000001100000000000000001100000000000000110000000
0000001100000000000000110000000000001100000000000110000001100000000000
0000011000000000000001100000000000001100000000000000110000000000001100
0000000001100000011000000000000000011000000000000001100000000000001110
0000000000011100000000000011000000000001100000011000000000000000011000
0000000000011000000000000001100000000000011000000000000011000000000001
1000000110000000000000000110000000000000011000000000000001110000000000
1110000000000000110000000000011000000110000000000000000110000000000000
0110000000000000001100000000001100000000000000110000000000011000000110
0000000000000001100000000000000110000000000000000111000000111000000000
0000001100000000000110000001111111111111000001111111111110000111111111
1110000000111111111100000000000000001100000000000110000001111111111111
0000011111111111100001111111111110000000000111010000000000000000000000
0000000000000000000000000000000000000000000000000000000000000000000000
0000000000000000000000000000000000000000000000000000000000000000000000
00000000000000000000000000000000000000000000000000