P1
8 8
11111110
11111110
11111110
11101110
11111110
11111110
11111110
00000000