P1
9 9
000000000
011111110
011111110
011111110
011101110
011111110
011111110
011111110
000000000
